<svg id="earth" xmlns="http://www.w3.org/2000/svg" width="20" height="20" viewBox="0 0 48.624 48.625">
  <g id="Group_1" data-name="Group 1">
    <path id="Path_1" data-name="Path 1" d="M35.432,10.815l.047.361-.541.112-.072.769h.648l.862-.083.445-.529-.473-.184-.259-.3-.389-.63-.186-.891-.731.149-.205.314v.354l.352.241Z" fill="#eb4b1f"/>
    <path id="Path_2" data-name="Path 2" d="M34.809,11.111l.039-.482-.429-.185-.6.139-.445.714v.463h.519Z" fill="#eb4b1f"/>
    <path id="Path_3" data-name="Path 3" d="M22.459,13.158l-.132.34h-.639v.33h.152s.009.07.022.162l.392-.033L22.5,13.8l.064-.307.317-.027L23,13.213l-.291-.06Z" fill="#eb4b1f"/>
    <path id="Path_4" data-name="Path 4" d="M20.812,13.757l-.025.323.463-.039.048-.324L21.02,13.5Z" fill="#eb4b1f"/>
    <path id="Path_5" data-name="Path 5" d="M48.619,24.061c-.007-.711-.043-1.417-.11-2.112a24.165,24.165,0,0,0-1.609-6.62c-.062-.155-.119-.312-.185-.465a24.341,24.341,0,0,0-4.56-7.045c-.125-.134-.252-.266-.379-.4-.359-.373-.728-.737-1.11-1.086a24.263,24.263,0,0,0-32.814.1,24.6,24.6,0,0,0-2.78,3.035A24.3,24.3,0,1,0,45.96,35.357,24.081,24.081,0,0,0,47.945,30c.115-.477.214-.956.3-1.441a24.313,24.313,0,0,0,.379-4.25C48.625,24.228,48.62,24.145,48.619,24.061Zm-4.576-9.717.141-.158c.185.359.358.724.523,1.094l-.23-.009-.434.06ZM40.53,10.1l0-1.086q.573.607,1.1,1.254l-.438.652-1.531-.014-.1-.319ZM11.2,7.4V7.362h.487l.042-.167h.8v.348l-.229.306H11.2V7.4Zm.778,1.085s.487-.083.529-.083,0,.486,0,.486l-1.1.069L11.2,8.71Zm33.612,9.651H43.813l-1.084-.807-1.141.111v.7h-.361l-.39-.278-1.976-.5V16.08l-2.5.195-.776.417h-.994l-.487-.049-1.207.67v1.261l-2.467,1.78.2.76h.5L31,21.838l-.352.129-.019,1.892,2.132,2.428h.928l.056-.148h1.668l.481-.445h.946l.519.52,1.41.146-.187,1.875L40.147,31l-.824,1.575.056.742.649.647v1.784l.852,1.146v1.482h.736A22.3,22.3,0,0,1,3.781,15.58v-.7l.8-.969q.415-.784.891-1.53l.036.4L4.58,13.915c-.287.542-.555,1.1-.8,1.665v1.27l.927.446v1.765L5.6,20.578l.723.111.093-.52-.853-1.316-.167-1.279h.5L6.1,18.89l1.233,1.8-.318.581.784,1.2,1.947.482v-.315l.779.111-.074.556.612.112.945.258,1.335,1.521,1.7.129.167,1.391-1.167.816L14,28.772l-.167.76,1.688,2.113.129.724s.612.166.687.166,1.372.983,1.372.983v3.819l.463.13-.315,1.762.779,1.039-.144,1.746,1.029,1.809,1.321,1.154L22.168,45l.13-.427-.976-.822.056-.408.175-.5.037-.51-.66-.02L20.6,41.9l.548-.527.074-.4-.612-.175.036-.37.872-.132,1.326-.637.445-.816,1.391-1.78-.316-1.392.427-.741,1.279.039.861-.682.278-2.686.955-1.213.167-.779-.871-.279-.575-.943-1.965-.02-1.558-.594-.074-1.111-.52-.909-1.409-.021-.814-1.278-.723-.353-.037.39-1.316.078-.482-.671-1.373-.279L15.48,24.924l-1.78-.3-.129-2.006-1.3-.222.521-.984-.149-.565-1.707,1.141-1.074-.131-.383-.839.234-.865.592-1.091,1.363-.69H14.3l-.007.8.946.44-.075-1.372.682-.686,1.376-.9.094-.636,1.372-1.428,1.459-.808-.129-.106.988-.93.362.1.166.208.375-.416L22,12.589l-.411-.058-.417-.139v-.4l.221-.181h.487l.223.1.193.39.236-.036v-.034l.068.023.684-.1.1-.334.39.1v.362l-.362.249h0l.053.4L24.7,13.3l0,.015.285-.024.019-.537-.982-.447-.056-.258.815-.278.036-.78-.852-.519-.056-1.315-1.168.574h-.426l.112-1-1.59-.375-.658.5v1.516L19,10.744l-.474.988-.514.083V10.551L16.9,10.4l-.556-.362-.224-.819,1.989-1.164.973-.3.1.654.542-.028.042-.329.567-.081.01-.115-.244-.1-.056-.348.7-.059.421-.438.023-.032,0,0,.128-.132,1.465-.185.648.55-1.7.905,2.162.51.28-.723h.945l.334-.63-.668-.167v-.8l-2.1-.928-1.446.167-.816.427.056,1.038-.853-.13L19.5,6.212l.817-.742L18.834,5.4l-.426.129-.185.5.556.094-.111.556-.945.056-.148.37L16.2,7.139a3.757,3.757,0,0,0-.093-.778l1.075-.019.817-.8-.446-.223-.593.576-.984-.056-.593-.816H14.126l-1.316.983h1.206l.11.353-.313.291,1.335.037.2.482-1.5-.056-.073-.371-.945-.2-.5-.278L11.2,6.271a22.249,22.249,0,0,1,27.837,1.3l-.265.474-1.029.4-.434.471.1.549.531.074.32.8.916-.369.151,1.07h-.276l-.752-.111-.834.14-.807,1.14-1.154.181-.167.988.487.115-.141.635-1.146-.23-1.051.23-.223.585.182,1.228.617.289L35.1,16.23l.7-.063.213-.556,1.092-1.419.719.147.708-.64.132.5,1.742,1.175-.213.286-.785-.042.3.428.483.106.566-.236-.012-.682L41,15.108l-.2-.214-1.162-.648-.306-.861H40.3l.309.306.832.717.035.867.862.918.321-1.258.6-.326.112,1.029.583.64,1.163-.02q.337.869.6,1.769ZM13.261,11.046l.584-.278.528.126-.182.709-.57.181Zm3.1,1.669v.459H15.026l-.5-.139.125-.32.641-.265h.876v.265Zm.614.64V13.8l-.334.215-.416.077v-.737Zm-.376-.181v-.529l.459.418Zm.209,1.07v.433l-.319.32h-.709l.111-.486.335-.029.069-.167Zm-1.766-.889h.737l-.945,1.321-.39-.209.084-.556Zm3.018.737v.432H17.35l-.194-.28v-.4h.056ZM17.4,13.5l.2-.212.341.212-.273.225Zm28.55,5.767.07-.082c.029.126.06.252.088.38Z" fill="#eb4b1f"/>
    <path id="Path_6" data-name="Path 6" d="M3.782,14.884v.7c.243-.568.511-1.122.8-1.665Z" fill="#eb4b1f"/>
  </g>
</svg>
