<svg xmlns="http://www.w3.org/2000/svg" width="32.205" height="31.179" viewBox="0 0 32.205 31.179">
  <g id="house-black-silhouette-without-door" transform="translate(0 -4.89)">
    <path id="Path_2" data-name="Path 2" d="M31.8,20.1a1.536,1.536,0,0,0-.126-2.2L17.283,5.311a1.794,1.794,0,0,0-2.34.027L.5,18.576a1.527,1.527,0,0,0-.069,2.194l.362.377a1.579,1.579,0,0,0,2.167.166l1.079-.967V34.5a1.571,1.571,0,0,0,1.571,1.571h5.63A1.571,1.571,0,0,0,12.811,34.5V24.6h7.18v9.9a1.485,1.485,0,0,0,1.476,1.57h5.966A1.571,1.571,0,0,0,29,34.5V20.546l.666.584c.367.323,1.138.064,1.722-.579Z" transform="translate(0)"/>
  </g>
</svg>
