<?xml version="1.0" standalone="no"?>
<!DOCTYPE svg PUBLIC "-//W3C//DTD SVG 20010904//EN"
 "http://www.w3.org/TR/2001/REC-SVG-20010904/DTD/svg10.dtd">
<svg version="1.0" xmlns="http://www.w3.org/2000/svg"
 width="60.000000pt" height="56.000000pt" viewBox="0 0 60.000000 56.000000"
 preserveAspectRatio="xMidYMid meet">
<metadata>
Created by potrace 1.16, written by Peter Selinger 2001-2019
</metadata>
<g transform="translate(0.000000,56.000000) scale(0.100000,-0.100000)"
fill="#000000" stroke="none">
<path d="M90 455 l0 -25 200 0 200 0 0 25 0 25 -200 0 -200 0 0 -25z"/>
<path d="M81 343 c-14 -70 -14 -113 -1 -113 6 0 10 -32 10 -75 l0 -75 125 0
125 0 0 75 0 75 50 0 50 0 0 -75 c0 -73 1 -75 25 -75 24 0 25 2 25 75 0 43 4
75 10 75 13 0 13 43 -1 113 l-12 57 -197 0 -197 0 -12 -57z"/>
</g>
</svg>
