<svg id="svg" version="1.1" xmlns="http://www.w3.org/2000/svg" xmlns:xlink="http://www.w3.org/1999/xlink" width="60px" height="60px" viewBox="0, 0, 400,392.4528301886793"><g id="svgg"><path id="path0" d="M75.761 88.575 C 72.293 89.104,68.128 90.912,66.403 92.637 C 64.176 94.864,61.567 99.292,61.131 101.587 C 60.384 105.508,60.289 293.318,61.031 297.230 C 61.969 302.174,66.055 307.529,70.387 309.494 C 76.183 312.122,62.004 311.861,206.281 311.997 C 335.684 312.119,340.555 312.080,342.100 310.893 C 342.316 310.727,343.067 310.468,343.769 310.318 C 345.669 309.912,348.602 308.240,350.077 306.721 C 350.794 305.983,351.797 305.106,352.306 304.773 C 353.183 304.198,354.690 301.466,356.294 297.547 C 357.266 295.172,357.442 106.236,356.475 103.435 C 356.177 102.571,355.426 100.768,354.807 99.428 C 354.187 98.087,353.678 96.851,353.677 96.680 C 353.675 96.509,353.110 95.927,352.422 95.388 C 351.733 94.848,350.561 93.851,349.816 93.173 C 348.495 91.970,345.065 90.084,342.296 89.037 C 341.011 88.552,78.893 88.096,75.761 88.575 M336.068 101.854 C 340.039 102.602,341.690 103.525,342.758 105.594 L 343.670 107.360 343.780 187.046 C 343.907 279.170,343.937 278.364,340.334 278.803 C 339.578 278.895,338.689 279.091,338.357 279.240 C 337.800 279.489,336.957 278.896,335.808 277.448 C 335.585 277.167,334.728 275.525,333.903 273.798 C 333.078 272.071,332.250 270.393,332.061 270.069 C 331.873 269.745,331.435 268.862,331.087 268.106 C 330.739 267.350,330.289 266.467,330.087 266.143 C 329.885 265.819,329.438 264.936,329.093 264.181 C 328.749 263.425,328.158 262.365,327.779 261.825 C 327.400 261.286,326.955 260.402,326.790 259.863 C 326.624 259.323,325.983 258.301,325.364 257.592 C 324.746 256.883,324.239 256.064,324.239 255.772 C 324.239 255.480,323.976 254.736,323.653 254.117 C 323.331 253.499,323.066 252.602,323.064 252.124 C 323.063 251.625,322.685 251.054,322.179 250.784 C 320.995 250.153,320.405 249.341,319.935 247.694 C 319.719 246.938,318.899 245.613,318.112 244.750 C 317.326 243.886,316.255 242.296,315.733 241.217 C 315.211 240.137,314.620 238.989,314.419 238.665 C 314.048 238.066,312.873 235.731,312.049 233.955 C 311.799 233.415,311.441 232.709,311.254 232.385 C 311.068 232.061,310.630 231.178,310.282 230.422 C 309.935 229.666,309.485 228.783,309.282 228.459 C 309.080 228.135,308.637 227.252,308.297 226.497 C 307.958 225.741,307.278 224.681,306.787 224.141 C 306.297 223.602,305.403 221.835,304.801 220.216 C 304.177 218.536,303.246 216.850,302.633 216.290 C 301.593 215.341,300.294 212.084,300.294 210.427 C 300.294 209.982,300.090 209.617,299.841 209.617 C 298.897 209.617,296.818 207.625,296.566 206.482 C 296.423 205.831,296.184 205.299,296.034 205.299 C 295.884 205.299,295.084 203.842,294.255 202.061 C 293.427 200.280,292.593 198.557,292.401 198.234 C 292.210 197.910,291.636 196.850,291.127 195.878 C 290.617 194.907,289.911 193.582,289.558 192.934 C 289.204 192.287,288.914 191.536,288.913 191.266 C 288.912 190.996,288.568 190.775,288.149 190.775 C 287.730 190.775,287.289 190.616,287.169 190.422 C 286.711 189.681,281.178 188.751,279.612 189.152 C 278.789 189.363,277.013 189.655,275.665 189.801 C 273.418 190.045,273.114 190.194,272.001 191.599 C 271.334 192.441,270.559 193.131,270.280 193.131 C 270.001 193.131,269.399 194.000,268.941 195.063 C 268.484 196.126,267.697 197.320,267.193 197.717 C 266.689 198.114,266.025 198.966,265.719 199.612 C 265.412 200.257,264.561 201.084,263.829 201.450 C 263.096 201.816,262.227 202.673,261.897 203.354 C 261.567 204.035,260.750 204.852,260.082 205.171 C 259.274 205.557,258.636 206.308,258.178 207.416 C 257.758 208.431,256.307 210.231,254.456 212.032 C 251.212 215.189,249.932 216.768,249.492 218.154 C 249.340 218.631,248.609 219.748,247.866 220.637 C 247.124 221.526,246.516 222.410,246.516 222.603 C 246.516 222.795,245.826 223.409,244.982 223.968 C 244.138 224.526,243.236 225.495,242.976 226.121 C 242.686 226.822,241.924 227.526,240.988 227.957 C 239.954 228.433,239.467 228.913,239.461 229.463 C 239.447 230.563,238.082 232.326,234.778 235.515 C 233.246 236.993,231.992 238.315,231.992 238.451 C 231.992 238.817,231.230 239.726,229.146 241.847 C 228.121 242.890,227.282 244.061,227.282 244.447 C 227.282 245.116,225.759 247.066,225.008 247.360 C 224.814 247.436,224.407 248.027,224.104 248.675 C 223.800 249.323,222.963 250.147,222.243 250.506 C 221.523 250.866,220.640 251.749,220.281 252.469 C 219.909 253.213,219.079 254.020,218.356 254.338 C 217.430 254.745,217.023 255.227,216.857 256.112 C 216.721 256.838,215.712 258.325,214.352 259.803 C 211.507 262.897,211.588 262.318,211.583 279.545 L 211.580 292.751 210.697 292.982 C 210.211 293.110,209.188 293.791,208.423 294.497 C 206.121 296.620,204.617 297.211,200.589 297.575 C 195.509 298.033,87.071 298.021,82.703 297.561 C 76.247 296.882,74.615 294.983,74.597 288.126 C 74.590 285.643,74.313 280.962,73.980 277.723 C 73.149 269.623,73.304 109.182,74.145 106.514 C 74.891 104.149,76.517 102.409,78.742 101.597 C 81.215 100.693,331.232 100.944,336.068 101.854 M144.441 159.386 C 142.824 161.003,143.414 184.887,145.070 184.887 C 148.553 184.887,152.668 172.223,150.793 167.271 C 150.578 166.705,150.298 165.606,150.170 164.828 C 149.777 162.438,145.475 158.352,144.441 159.386 " stroke="none" fill="#c5c6c6" fill-rule="evenodd"></path><path id="path1" d="M71.112 86.627 C 65.932 88.013,60.093 94.004,59.092 98.962 C 58.944 99.695,58.577 100.838,58.277 101.501 C 56.933 104.477,56.897 107.313,57.007 201.963 L 57.115 295.780 58.380 299.213 C 61.121 306.656,63.492 309.287,70.713 312.902 C 75.494 315.296,71.652 315.235,210.899 315.110 C 349.926 314.984,340.300 315.116,344.848 313.272 C 349.542 311.368,356.035 306.469,356.035 304.830 C 356.035 304.510,356.557 303.653,357.195 302.926 C 359.991 299.742,359.764 308.775,359.764 200.589 C 359.764 96.443,359.862 101.700,357.869 98.037 C 357.429 97.228,356.924 96.565,356.748 96.565 C 356.572 96.565,356.428 96.274,356.428 95.918 C 356.428 95.130,350.656 89.500,349.849 89.500 C 349.666 89.500,348.813 88.982,347.954 88.350 C 344.472 85.790,354.846 85.962,207.140 86.016 C 92.395 86.059,72.909 86.147,71.112 86.627 M343.140 87.439 C 343.410 87.709,343.972 87.929,344.389 87.929 C 345.169 87.929,347.886 89.418,348.119 89.973 C 348.191 90.145,348.482 90.285,348.766 90.285 C 349.255 90.285,351.898 92.448,354.060 94.620 C 354.606 95.169,355.407 96.317,355.839 97.171 C 356.271 98.025,356.745 98.816,356.892 98.927 C 358.654 100.263,358.587 96.236,358.587 200.244 L 358.587 297.445 356.638 301.268 C 353.616 307.197,348.375 311.225,341.195 313.137 C 337.624 314.088,78.605 314.243,75.172 313.296 C 67.946 311.304,61.968 306.086,59.825 299.902 C 58.658 296.532,58.653 103.602,59.820 99.904 C 61.160 95.660,63.805 92.156,67.508 89.719 C 70.173 87.965,70.988 87.671,74.583 87.165 C 78.537 86.609,342.579 86.878,343.140 87.439 M79.689 103.159 C 77.736 103.830,77.483 104.045,76.349 106.004 C 75.440 107.574,74.869 268.756,75.749 275.172 C 75.972 276.791,76.409 279.529,76.721 281.256 C 77.034 282.983,77.298 286.295,77.310 288.616 C 77.326 291.881,77.450 292.836,77.859 292.836 C 78.150 292.836,78.989 293.145,79.724 293.523 C 81.936 294.660,200.961 294.579,202.846 293.438 L 204.122 292.667 204.122 279.006 C 204.122 265.515,204.389 262.238,205.493 262.207 C 205.710 262.201,206.850 260.876,208.026 259.263 C 209.201 257.650,210.264 256.330,210.386 256.330 C 210.509 256.330,211.046 255.623,211.580 254.760 C 212.114 253.896,212.662 253.189,212.798 253.189 C 212.934 253.189,213.524 252.466,214.109 251.583 C 214.694 250.699,216.528 248.444,218.185 246.571 C 220.843 243.567,222.868 241.223,226.144 237.359 C 226.662 236.748,227.588 235.688,228.202 235.004 C 228.816 234.319,230.044 232.791,230.930 231.609 C 231.816 230.426,233.488 228.483,234.646 227.291 C 235.805 226.098,237.129 224.504,237.590 223.749 C 238.051 222.993,238.525 222.287,238.645 222.179 C 238.764 222.071,239.827 220.834,241.006 219.431 C 242.186 218.027,243.511 216.524,243.950 216.091 C 244.713 215.339,245.452 214.465,248.227 211.039 C 248.905 210.202,249.725 209.228,250.049 208.875 C 250.373 208.523,251.344 207.356,252.208 206.283 C 253.072 205.211,254.228 203.888,254.779 203.344 C 255.329 202.800,256.244 201.721,256.811 200.946 C 257.379 200.171,258.579 198.758,259.478 197.806 C 260.377 196.854,261.746 195.280,262.520 194.308 C 265.077 191.100,270.632 185.883,272.426 185.005 C 280.565 181.020,291.239 183.895,294.778 191.025 C 295.299 192.075,296.375 193.906,297.170 195.093 C 297.964 196.281,298.809 197.834,299.047 198.545 C 299.286 199.257,299.813 200.316,300.219 200.901 C 300.625 201.485,301.379 202.846,301.895 203.925 C 302.412 205.005,303.428 206.771,304.155 207.851 C 304.881 208.930,305.965 210.873,306.563 212.169 C 307.162 213.464,308.027 214.914,308.487 215.391 C 308.947 215.868,309.329 216.398,309.336 216.568 C 309.344 216.739,309.691 217.586,310.108 218.449 C 310.525 219.313,310.872 220.215,310.880 220.453 C 310.887 220.691,311.321 221.348,311.844 221.912 C 312.367 222.477,312.921 223.342,313.076 223.834 C 313.231 224.327,313.948 225.656,314.670 226.788 C 316.002 228.877,319.093 234.583,321.210 238.862 C 321.851 240.157,322.702 241.633,323.102 242.142 C 323.502 242.651,324.301 244.064,324.876 245.282 C 325.452 246.501,326.327 248.028,326.821 248.677 C 327.314 249.326,327.902 250.297,328.127 250.836 C 328.351 251.375,329.067 252.699,329.717 253.778 C 330.367 254.858,331.324 256.647,331.844 257.753 C 332.364 258.860,333.441 260.784,334.237 262.029 C 335.033 263.274,336.115 265.232,336.640 266.381 C 337.485 268.228,337.788 268.525,339.259 268.946 C 340.174 269.207,341.143 269.588,341.413 269.793 C 341.805 270.090,341.904 253.801,341.904 188.664 C 341.904 143.718,341.753 107.164,341.568 107.164 C 341.383 107.164,340.456 106.573,339.507 105.852 C 336.834 103.818,339.063 103.889,270.265 103.634 C 222.191 103.456,204.691 103.272,203.533 102.933 C 200.851 102.146,82.003 102.363,79.689 103.159 M204.252 104.598 C 210.919 106.889,206.677 106.759,275.026 106.766 C 327.570 106.770,337.955 106.859,338.326 107.306 C 338.983 108.098,338.758 262.380,338.098 263.040 C 337.735 263.404,337.572 263.254,337.375 262.373 C 336.903 260.261,335.824 257.837,334.912 256.838 C 334.413 256.292,333.649 254.940,333.213 253.834 C 332.777 252.728,332.302 251.733,332.157 251.623 C 331.507 251.129,330.198 248.906,329.546 247.188 C 329.153 246.155,328.369 244.918,327.804 244.441 C 327.155 243.893,326.495 242.644,326.017 241.063 C 325.557 239.540,324.779 238.044,324.037 237.258 C 323.274 236.449,322.642 235.217,322.357 233.983 C 321.902 232.008,320.233 229.637,319.299 229.637 C 319.028 229.637,318.682 229.070,318.529 228.377 C 318.117 226.500,316.927 223.894,316.107 223.074 C 315.709 222.677,315.052 221.473,314.646 220.400 C 314.241 219.327,313.795 218.361,313.656 218.253 C 312.884 217.654,311.316 215.098,310.887 213.739 C 310.255 211.737,309.126 210.125,308.135 209.810 C 307.559 209.627,307.360 209.214,307.360 208.195 C 307.360 206.408,306.022 203.507,304.841 202.733 C 304.271 202.359,303.802 201.561,303.638 200.682 C 303.188 198.286,301.370 195.486,300.265 195.486 C 300.099 195.486,299.759 194.823,299.510 194.014 C 298.882 191.970,297.416 188.813,297.095 188.813 C 296.949 188.813,296.289 187.936,295.630 186.864 C 294.875 185.637,293.872 184.631,292.920 184.145 C 292.090 183.721,291.159 183.072,290.853 182.703 C 288.048 179.323,273.827 179.358,271.158 182.751 C 270.770 183.245,269.929 183.764,269.289 183.905 C 268.304 184.121,266.552 185.668,266.083 186.737 C 266.008 186.907,265.417 187.313,264.769 187.639 C 264.122 187.965,263.327 188.782,263.003 189.453 C 262.679 190.125,261.939 190.948,261.359 191.281 C 260.779 191.615,259.938 192.606,259.491 193.483 C 259.043 194.360,258.154 195.347,257.515 195.678 C 256.876 196.009,256.151 196.675,255.903 197.158 C 255.656 197.642,254.758 198.744,253.908 199.607 C 251.095 202.466,248.871 204.990,248.871 205.324 C 248.871 205.890,246.619 208.976,245.342 210.160 C 244.670 210.783,244.019 211.799,243.895 212.417 C 243.758 213.106,243.421 213.543,243.028 213.543 C 242.254 213.543,240.386 215.207,240.068 216.180 C 239.942 216.565,239.217 217.282,238.455 217.774 C 237.562 218.352,236.989 219.079,236.839 219.826 C 236.695 220.548,235.960 221.515,234.889 222.393 C 233.943 223.167,233.170 223.973,233.170 224.183 C 233.170 224.393,232.463 225.278,231.600 226.150 C 230.736 227.023,230.029 227.892,230.029 228.081 C 230.029 228.271,229.367 229.124,228.557 229.977 C 225.768 232.917,225.256 233.644,225.040 234.975 C 224.892 235.890,224.612 236.310,224.151 236.310 C 223.301 236.310,221.561 237.829,221.228 238.862 C 221.089 239.293,220.407 240.001,219.712 240.434 C 218.973 240.894,218.298 241.735,218.083 242.463 C 217.840 243.287,217.220 243.984,216.241 244.534 C 215.429 244.990,214.656 245.708,214.522 246.130 C 214.388 246.551,213.583 247.598,212.733 248.457 C 211.883 249.316,211.187 250.155,211.187 250.323 C 211.187 251.268,205.788 258.649,204.931 258.876 C 204.404 259.016,203.515 259.456,202.956 259.854 C 201.832 260.655,201.324 260.506,199.548 258.861 C 198.978 258.332,198.325 257.900,198.097 257.900 C 197.514 257.900,195.093 255.491,195.093 254.911 C 195.093 254.647,194.519 254.074,193.817 253.637 C 193.116 253.200,192.102 252.125,191.564 251.246 C 191.026 250.368,190.310 249.562,189.973 249.455 C 189.636 249.348,188.928 248.559,188.400 247.703 C 187.871 246.846,187.306 246.140,187.144 246.134 C 186.982 246.128,186.850 245.898,186.850 245.623 C 186.850 245.348,186.011 244.238,184.985 243.156 C 181.905 239.906,181.165 238.934,180.559 237.334 C 180.241 236.494,179.627 235.611,179.195 235.372 C 178.763 235.132,177.969 234.419,177.429 233.786 C 176.889 233.154,175.608 231.805,174.583 230.790 C 173.557 229.774,172.718 228.810,172.718 228.648 C 172.718 228.407,171.337 226.902,168.597 224.158 C 162.827 218.381,157.649 217.945,153.025 222.845 C 151.279 224.695,150.055 225.711,149.573 225.711 C 149.371 225.711,149.064 225.958,148.891 226.260 C 148.718 226.561,147.870 227.221,147.007 227.727 C 146.143 228.232,145.024 229.133,144.519 229.730 C 144.014 230.326,143.347 230.815,143.038 230.815 C 142.728 230.815,141.541 231.763,140.400 232.923 C 139.259 234.083,137.926 235.159,137.438 235.313 C 136.951 235.468,135.636 236.508,134.517 237.625 C 133.398 238.742,131.865 240.087,131.109 240.614 C 130.353 241.141,129.647 241.678,129.539 241.808 C 129.431 241.937,128.636 242.470,127.772 242.991 C 126.909 243.513,125.877 244.347,125.479 244.845 C 125.081 245.343,124.174 245.994,123.463 246.291 C 122.752 246.588,121.857 247.362,121.474 248.010 C 121.091 248.659,120.055 249.584,119.172 250.065 C 118.289 250.546,116.683 251.790,115.604 252.829 C 113.657 254.702,112.351 255.726,109.323 257.749 C 108.459 258.326,107.307 259.289,106.763 259.889 C 106.219 260.489,105.333 261.091,104.795 261.226 C 104.256 261.361,103.398 262.081,102.888 262.826 C 102.377 263.571,101.055 264.700,99.949 265.333 C 98.844 265.967,97.156 267.309,96.200 268.315 C 94.279 270.334,90.823 272.810,89.897 272.829 C 89.086 272.846,88.232 273.592,87.582 274.851 C 87.284 275.431,86.540 276.112,85.929 276.365 C 85.319 276.618,84.363 277.422,83.807 278.152 C 82.016 280.499,78.352 280.199,77.069 277.601 C 76.565 276.579,76.442 108.360,76.945 107.164 C 77.171 106.624,78.278 105.624,79.405 104.941 L 81.452 103.700 141.445 103.666 L 201.438 103.631 204.252 104.598 M135.819 151.755 C 135.280 152.133,134.107 153.104,133.213 153.913 C 132.320 154.721,130.640 155.831,129.481 156.379 C 126.458 157.809,123.546 160.749,122.239 163.690 C 121.903 164.446,121.305 165.770,120.909 166.634 C 120.514 167.498,120.075 168.646,119.933 169.185 C 119.792 169.725,119.474 170.576,119.228 171.076 C 118.911 171.720,118.903 172.063,119.202 172.253 C 119.435 172.401,120.017 173.405,120.496 174.485 C 120.976 175.564,121.797 177.372,122.322 178.502 C 122.846 179.632,123.383 181.095,123.514 181.752 C 123.675 182.556,124.264 183.297,125.313 184.015 C 126.170 184.603,127.428 185.545,128.107 186.110 C 128.787 186.675,129.784 187.272,130.324 187.438 C 131.624 187.837,134.230 189.684,134.241 190.212 C 134.245 190.442,134.936 191.017,135.775 191.488 C 141.121 194.493,152.916 188.737,155.542 181.841 C 155.932 180.818,156.732 179.009,157.321 177.821 C 158.897 174.641,158.892 168.865,157.311 165.544 C 156.717 164.296,156.232 163.057,156.232 162.790 C 156.232 160.955,152.040 155.876,149.004 154.032 C 147.974 153.407,146.574 152.559,145.892 152.149 C 144.063 151.049,137.208 150.780,135.819 151.755 M144.406 153.308 C 149.023 154.916,155.030 161.237,155.050 164.508 C 155.052 164.850,155.168 165.244,155.308 165.383 C 158.593 168.668,156.309 180.116,151.388 185.037 C 146.536 189.889,139.251 191.874,137.119 188.924 C 136.728 188.383,136.187 187.708,135.918 187.423 C 135.543 187.028,135.427 183.386,135.427 171.993 L 135.427 157.079 136.703 154.897 L 137.978 152.714 140.334 152.712 C 141.629 152.711,143.462 152.979,144.406 153.308 " stroke="none" fill="#dbdcdc" fill-rule="evenodd"></path><path id="path2" d="M0.000 196.271 L 0.000 392.542 200.000 392.542 L 400.000 392.542 400.000 196.271 L 400.000 0.000 200.000 0.000 L 0.000 0.000 0.000 196.271 M341.962 84.314 C 342.750 84.808,344.517 85.391,345.888 85.610 C 349.187 86.135,351.295 87.087,351.568 88.173 C 351.696 88.682,352.206 89.145,352.807 89.295 C 354.365 89.686,355.920 90.949,356.195 92.047 C 356.331 92.589,356.630 93.032,356.858 93.032 C 357.600 93.032,359.427 95.163,359.720 96.370 C 359.877 97.017,360.481 98.430,361.062 99.509 L 362.120 101.472 362.232 198.822 C 362.349 300.098,362.369 298.097,361.179 299.375 C 360.775 299.809,360.314 300.767,360.154 301.505 C 359.623 303.952,358.268 306.591,357.428 306.809 C 356.986 306.925,356.297 307.722,355.896 308.581 C 355.365 309.723,354.869 310.204,354.059 310.366 C 352.943 310.589,351.325 311.814,351.325 312.435 C 351.325 312.955,347.945 314.417,345.810 314.822 C 344.752 315.023,343.175 315.657,342.306 316.232 C 339.747 317.926,340.551 317.916,207.655 317.920 C 75.759 317.924,75.914 317.926,73.739 316.275 C 73.016 315.726,71.717 315.149,70.854 314.992 C 68.535 314.571,65.205 313.004,63.824 311.684 C 63.156 311.047,62.125 310.086,61.531 309.550 C 60.937 309.014,60.451 308.462,60.451 308.324 C 60.451 308.186,60.098 307.624,59.666 307.075 C 59.235 306.526,58.881 305.790,58.881 305.439 C 58.881 305.088,58.519 304.575,58.075 304.298 C 57.632 304.021,56.881 302.963,56.407 301.946 L 55.545 300.098 55.545 200.589 C 55.545 90.573,55.381 98.002,57.868 95.235 C 58.317 94.736,59.086 93.545,59.576 92.590 C 60.111 91.548,61.084 90.472,62.007 89.901 C 62.853 89.378,63.639 88.579,63.753 88.126 C 64.013 87.089,66.976 85.770,69.753 85.455 C 70.875 85.328,72.377 84.905,73.090 84.516 C 73.803 84.126,74.828 83.696,75.368 83.558 C 75.908 83.421,135.790 83.333,208.440 83.362 L 340.530 83.415 341.962 84.314 M79.980 107.195 C 79.103 107.706,78.892 268.949,79.764 272.210 C 80.430 274.700,80.847 274.656,83.870 271.773 C 85.347 270.365,87.271 268.714,88.146 268.105 C 89.020 267.496,90.610 266.163,91.679 265.141 C 93.658 263.249,98.747 259.703,100.097 259.274 C 100.507 259.144,100.938 258.737,101.055 258.370 C 101.171 258.003,101.824 257.261,102.506 256.722 C 103.188 256.182,104.448 255.079,105.306 254.269 C 106.164 253.459,107.032 252.797,107.234 252.797 C 107.539 252.797,109.203 251.376,111.634 249.041 C 111.874 248.810,113.042 247.943,114.230 247.114 C 115.417 246.286,116.477 245.483,116.585 245.330 C 116.693 245.177,117.176 244.928,117.660 244.778 C 118.143 244.627,119.821 243.258,121.389 241.736 C 122.957 240.214,125.034 238.432,126.006 237.776 C 126.977 237.120,128.214 236.124,128.754 235.562 C 130.285 233.968,133.301 231.600,133.799 231.600 C 134.047 231.600,134.249 231.445,134.249 231.255 C 134.249 231.066,135.220 230.403,136.407 229.783 C 137.594 229.163,138.566 228.549,138.566 228.418 C 138.568 228.069,140.278 226.285,141.008 225.872 C 141.355 225.676,142.353 224.853,143.226 224.043 C 144.099 223.234,144.979 222.571,145.181 222.571 C 145.383 222.571,146.412 221.732,147.468 220.707 C 152.301 216.015,154.022 215.242,160.544 214.835 C 165.895 214.501,167.140 215.137,173.065 221.224 C 176.405 224.655,178.289 226.907,178.595 227.836 C 178.851 228.611,179.212 229.244,179.397 229.244 C 179.583 229.244,180.232 229.786,180.839 230.449 C 181.446 231.111,182.782 232.502,183.808 233.540 C 184.833 234.578,185.672 235.699,185.672 236.032 C 185.672 236.365,185.814 236.696,185.988 236.768 C 186.161 236.840,187.649 238.489,189.293 240.432 C 190.938 242.375,193.197 244.936,194.312 246.124 C 195.428 247.311,196.764 248.937,197.281 249.738 C 197.799 250.538,198.591 251.391,199.043 251.632 C 200.190 252.246,201.359 253.473,201.716 254.439 C 201.976 255.142,202.164 254.948,203.070 253.034 L 204.122 250.813 204.122 179.223 L 204.122 107.633 202.885 107.202 C 201.213 106.619,80.981 106.613,79.980 107.195 M141.931 148.612 C 142.982 149.170,144.787 149.781,145.943 149.969 C 148.559 150.395,151.060 151.473,151.318 152.286 C 151.426 152.624,152.236 153.342,153.120 153.880 C 154.003 154.418,155.155 155.582,155.679 156.468 C 156.202 157.354,156.997 158.410,157.443 158.814 C 158.994 160.217,159.716 162.413,160.945 169.470 C 161.658 173.563,159.614 181.811,157.152 184.779 C 156.754 185.259,156.003 186.234,155.484 186.946 C 154.965 187.658,153.877 188.659,153.067 189.171 C 152.256 189.684,150.922 190.699,150.102 191.429 C 149.282 192.158,147.897 192.945,147.024 193.178 C 146.151 193.411,145.031 193.761,144.535 193.955 C 144.039 194.149,143.237 194.308,142.753 194.308 C 142.270 194.308,141.181 194.661,140.334 195.093 C 138.417 196.071,137.367 196.084,136.167 195.147 C 135.652 194.745,134.789 194.289,134.249 194.134 C 133.297 193.860,131.347 193.000,127.085 190.973 C 125.952 190.434,124.369 189.418,123.567 188.716 C 122.766 188.013,121.558 187.009,120.884 186.485 C 114.227 181.304,113.621 165.268,119.806 157.961 C 122.074 155.282,125.513 152.306,126.341 152.306 C 126.588 152.306,126.791 152.140,126.791 151.938 C 126.791 151.735,127.542 151.452,128.459 151.308 C 129.377 151.164,131.541 150.288,133.268 149.361 C 137.151 147.277,139.104 147.108,141.931 148.612 " stroke="none" fill="#ececec" fill-rule="evenodd"></path><path id="path3" d="M75.368 83.558 C 74.828 83.696,73.803 84.126,73.090 84.516 C 72.377 84.905,70.875 85.328,69.753 85.455 C 66.976 85.770,64.013 87.089,63.753 88.126 C 63.639 88.579,62.853 89.378,62.007 89.901 C 61.084 90.472,60.111 91.548,59.576 92.590 C 59.086 93.545,58.317 94.736,57.868 95.235 C 55.381 98.002,55.545 90.573,55.545 200.589 L 55.545 300.098 56.407 301.946 C 56.881 302.963,57.632 304.021,58.075 304.298 C 58.519 304.575,58.881 305.088,58.881 305.439 C 58.881 305.790,59.235 306.526,59.666 307.075 C 60.098 307.624,60.451 308.186,60.451 308.324 C 60.451 308.462,60.937 309.014,61.531 309.550 C 62.125 310.086,63.156 311.047,63.824 311.684 C 65.205 313.004,68.535 314.571,70.854 314.992 C 71.717 315.149,73.016 315.726,73.739 316.275 C 75.914 317.926,75.759 317.924,207.655 317.920 C 340.551 317.916,339.747 317.926,342.306 316.232 C 343.175 315.657,344.752 315.023,345.810 314.822 C 347.945 314.417,351.325 312.955,351.325 312.435 C 351.325 311.814,352.943 310.589,354.059 310.366 C 354.869 310.204,355.365 309.723,355.896 308.581 C 356.297 307.722,356.986 306.925,357.428 306.809 C 358.268 306.591,359.623 303.952,360.154 301.505 C 360.314 300.767,360.775 299.809,361.179 299.375 C 362.369 298.097,362.349 300.098,362.232 198.822 L 362.120 101.472 361.062 99.509 C 360.481 98.430,359.877 97.017,359.720 96.370 C 359.427 95.163,357.600 93.032,356.858 93.032 C 356.630 93.032,356.331 92.589,356.195 92.047 C 355.920 90.949,354.365 89.686,352.807 89.295 C 352.206 89.145,351.696 88.682,351.568 88.173 C 351.295 87.087,349.187 86.135,345.888 85.610 C 344.517 85.391,342.750 84.808,341.962 84.314 L 340.530 83.415 208.440 83.362 C 135.790 83.333,75.908 83.421,75.368 83.558 M343.730 86.584 C 345.286 86.944,347.040 87.678,347.954 88.350 C 348.813 88.982,349.666 89.500,349.849 89.500 C 350.656 89.500,356.428 95.130,356.428 95.918 C 356.428 96.274,356.572 96.565,356.748 96.565 C 356.924 96.565,357.429 97.228,357.869 98.037 C 359.862 101.700,359.764 96.443,359.764 200.589 C 359.764 308.775,359.991 299.742,357.195 302.926 C 356.557 303.653,356.035 304.510,356.035 304.830 C 356.035 306.469,349.542 311.368,344.848 313.272 C 340.300 315.116,349.926 314.984,210.899 315.110 C 71.652 315.235,75.494 315.296,70.713 312.902 C 63.492 309.287,61.121 306.656,58.380 299.213 L 57.115 295.780 57.007 201.963 C 56.897 107.313,56.933 104.477,58.277 101.501 C 58.577 100.838,58.944 99.695,59.092 98.962 C 60.093 94.004,65.932 88.013,71.112 86.627 C 74.455 85.733,339.879 85.690,343.730 86.584 M79.405 104.941 C 78.278 105.624,77.171 106.624,76.945 107.164 C 76.442 108.360,76.565 276.579,77.069 277.601 C 78.352 280.199,82.016 280.499,83.807 278.152 C 84.363 277.422,85.319 276.618,85.929 276.365 C 86.540 276.112,87.284 275.431,87.582 274.851 C 88.232 273.592,89.086 272.846,89.897 272.829 C 90.823 272.810,94.279 270.334,96.200 268.315 C 97.156 267.309,98.844 265.967,99.949 265.333 C 101.055 264.700,102.377 263.571,102.888 262.826 C 103.398 262.081,104.256 261.361,104.795 261.226 C 105.333 261.091,106.219 260.489,106.763 259.889 C 107.307 259.289,108.459 258.326,109.323 257.749 C 112.351 255.726,113.657 254.702,115.604 252.829 C 116.683 251.790,118.289 250.546,119.172 250.065 C 120.055 249.584,121.091 248.659,121.474 248.010 C 121.857 247.362,122.752 246.588,123.463 246.291 C 124.174 245.994,125.081 245.343,125.479 244.845 C 125.877 244.347,126.909 243.513,127.772 242.991 C 128.636 242.470,129.431 241.937,129.539 241.808 C 129.647 241.678,130.353 241.141,131.109 240.614 C 131.865 240.087,133.398 238.742,134.517 237.625 C 135.636 236.508,136.951 235.468,137.438 235.313 C 137.926 235.159,139.259 234.083,140.400 232.923 C 141.541 231.763,142.728 230.815,143.038 230.815 C 143.347 230.815,144.014 230.326,144.519 229.730 C 145.024 229.133,146.143 228.232,147.007 227.727 C 147.870 227.221,148.718 226.561,148.891 226.260 C 149.064 225.958,149.371 225.711,149.573 225.711 C 150.055 225.711,151.279 224.695,153.025 222.845 C 157.649 217.945,162.827 218.381,168.597 224.158 C 171.337 226.902,172.718 228.407,172.718 228.648 C 172.718 228.810,173.557 229.774,174.583 230.790 C 175.608 231.805,176.889 233.154,177.429 233.786 C 177.969 234.419,178.763 235.132,179.195 235.372 C 179.627 235.611,180.241 236.494,180.559 237.334 C 181.165 238.934,181.905 239.906,184.985 243.156 C 186.011 244.238,186.850 245.348,186.850 245.623 C 186.850 245.898,186.982 246.128,187.144 246.134 C 187.306 246.140,187.871 246.846,188.400 247.703 C 188.928 248.559,189.636 249.348,189.973 249.455 C 190.310 249.562,191.026 250.368,191.564 251.246 C 192.102 252.125,193.116 253.200,193.817 253.637 C 194.519 254.074,195.093 254.647,195.093 254.911 C 195.093 255.491,197.514 257.900,198.097 257.900 C 198.325 257.900,198.978 258.332,199.548 258.861 C 201.324 260.506,201.832 260.655,202.956 259.854 C 203.515 259.456,204.404 259.016,204.931 258.876 C 205.788 258.649,211.187 251.268,211.187 250.323 C 211.187 250.155,211.883 249.316,212.733 248.457 C 213.583 247.598,214.388 246.551,214.522 246.130 C 214.656 245.708,215.429 244.990,216.241 244.534 C 217.220 243.984,217.840 243.287,218.083 242.463 C 218.298 241.735,218.973 240.894,219.712 240.434 C 220.407 240.001,221.089 239.293,221.228 238.862 C 221.561 237.829,223.301 236.310,224.151 236.310 C 224.612 236.310,224.892 235.890,225.040 234.975 C 225.256 233.644,225.768 232.917,228.557 229.977 C 229.367 229.124,230.029 228.271,230.029 228.081 C 230.029 227.892,230.736 227.023,231.600 226.150 C 232.463 225.278,233.170 224.393,233.170 224.183 C 233.170 223.973,233.943 223.167,234.889 222.393 C 235.960 221.515,236.695 220.548,236.839 219.826 C 236.989 219.079,237.562 218.352,238.455 217.774 C 239.217 217.282,239.942 216.565,240.068 216.180 C 240.386 215.207,242.254 213.543,243.028 213.543 C 243.421 213.543,243.758 213.106,243.895 212.417 C 244.019 211.799,244.670 210.783,245.342 210.160 C 246.619 208.976,248.871 205.890,248.871 205.324 C 248.871 204.990,251.095 202.466,253.908 199.607 C 254.758 198.744,255.656 197.642,255.903 197.158 C 256.151 196.675,256.876 196.009,257.515 195.678 C 258.154 195.347,259.043 194.360,259.491 193.483 C 259.938 192.606,260.779 191.615,261.359 191.281 C 261.939 190.948,262.679 190.125,263.003 189.453 C 263.327 188.782,264.122 187.965,264.769 187.639 C 265.417 187.313,266.008 186.907,266.083 186.737 C 266.552 185.668,268.304 184.121,269.289 183.905 C 269.929 183.764,270.770 183.245,271.158 182.751 C 273.827 179.358,288.048 179.323,290.853 182.703 C 291.159 183.072,292.090 183.721,292.920 184.145 C 293.872 184.631,294.875 185.637,295.630 186.864 C 296.289 187.936,296.949 188.813,297.095 188.813 C 297.416 188.813,298.882 191.970,299.510 194.014 C 299.759 194.823,300.099 195.486,300.265 195.486 C 301.370 195.486,303.188 198.286,303.638 200.682 C 303.802 201.561,304.271 202.359,304.841 202.733 C 306.022 203.507,307.360 206.408,307.360 208.195 C 307.360 209.214,307.559 209.627,308.135 209.810 C 309.126 210.125,310.255 211.737,310.887 213.739 C 311.316 215.098,312.884 217.654,313.656 218.253 C 313.795 218.361,314.241 219.327,314.646 220.400 C 315.052 221.473,315.709 222.677,316.107 223.074 C 316.927 223.894,318.117 226.500,318.529 228.377 C 318.682 229.070,319.028 229.637,319.299 229.637 C 320.233 229.637,321.902 232.008,322.357 233.983 C 322.642 235.217,323.274 236.449,324.037 237.258 C 324.779 238.044,325.557 239.540,326.017 241.063 C 326.495 242.644,327.155 243.893,327.804 244.441 C 328.369 244.918,329.153 246.155,329.546 247.188 C 330.198 248.906,331.507 251.129,332.157 251.623 C 332.302 251.733,332.777 252.728,333.213 253.834 C 333.649 254.940,334.413 256.292,334.912 256.838 C 335.824 257.837,336.903 260.261,337.375 262.373 C 337.572 263.254,337.735 263.404,338.098 263.040 C 338.758 262.380,338.983 108.098,338.326 107.306 C 337.955 106.859,327.570 106.770,275.026 106.766 C 206.677 106.759,210.919 106.889,204.252 104.598 L 201.438 103.631 141.445 103.666 L 81.452 103.700 79.405 104.941 M202.885 107.202 L 204.122 107.633 204.122 179.223 L 204.122 250.813 203.070 253.034 C 202.164 254.948,201.976 255.142,201.716 254.439 C 201.359 253.473,200.190 252.246,199.043 251.632 C 198.591 251.391,197.799 250.538,197.281 249.738 C 196.764 248.937,195.428 247.311,194.312 246.124 C 193.197 244.936,190.938 242.375,189.293 240.432 C 187.649 238.489,186.161 236.840,185.988 236.768 C 185.814 236.696,185.672 236.365,185.672 236.032 C 185.672 235.699,184.833 234.578,183.808 233.540 C 182.782 232.502,181.446 231.111,180.839 230.449 C 180.232 229.786,179.583 229.244,179.397 229.244 C 179.212 229.244,178.851 228.611,178.595 227.836 C 178.289 226.907,176.405 224.655,173.065 221.224 C 167.140 215.137,165.895 214.501,160.544 214.835 C 154.022 215.242,152.301 216.015,147.468 220.707 C 146.412 221.732,145.383 222.571,145.181 222.571 C 144.979 222.571,144.099 223.234,143.226 224.043 C 142.353 224.853,141.355 225.676,141.008 225.872 C 140.278 226.285,138.568 228.069,138.566 228.418 C 138.566 228.549,137.594 229.163,136.407 229.783 C 135.220 230.403,134.249 231.066,134.249 231.255 C 134.249 231.445,134.047 231.600,133.799 231.600 C 133.301 231.600,130.285 233.968,128.754 235.562 C 128.214 236.124,126.977 237.120,126.006 237.776 C 125.034 238.432,122.957 240.214,121.389 241.736 C 119.821 243.258,118.143 244.627,117.660 244.778 C 117.176 244.928,116.693 245.177,116.585 245.330 C 116.477 245.483,115.417 246.286,114.230 247.114 C 113.042 247.943,111.874 248.810,111.634 249.041 C 109.203 251.376,107.539 252.797,107.234 252.797 C 107.032 252.797,106.164 253.459,105.306 254.269 C 104.448 255.079,103.188 256.182,102.506 256.722 C 101.824 257.261,101.171 258.003,101.055 258.370 C 100.938 258.737,100.507 259.144,100.097 259.274 C 98.747 259.703,93.658 263.249,91.679 265.141 C 90.610 266.163,89.020 267.496,88.146 268.105 C 87.271 268.714,85.347 270.365,83.870 271.773 C 80.847 274.656,80.430 274.700,79.764 272.210 C 78.892 268.949,79.103 107.706,79.980 107.195 C 80.981 106.613,201.213 106.619,202.885 107.202 M133.268 149.361 C 131.541 150.288,129.377 151.164,128.459 151.308 C 127.542 151.452,126.791 151.735,126.791 151.938 C 126.791 152.140,126.588 152.306,126.341 152.306 C 125.513 152.306,122.074 155.282,119.806 157.961 C 113.621 165.268,114.227 181.304,120.884 186.485 C 121.558 187.009,122.766 188.013,123.567 188.716 C 124.369 189.418,125.952 190.434,127.085 190.973 C 131.347 193.000,133.297 193.860,134.249 194.134 C 134.789 194.289,135.652 194.745,136.167 195.147 C 137.367 196.084,138.417 196.071,140.334 195.093 C 141.181 194.661,142.270 194.308,142.753 194.308 C 143.237 194.308,144.039 194.149,144.535 193.955 C 145.031 193.761,146.151 193.411,147.024 193.178 C 147.897 192.945,149.282 192.158,150.102 191.429 C 150.922 190.699,152.256 189.684,153.067 189.171 C 153.877 188.659,154.965 187.658,155.484 186.946 C 156.003 186.234,156.754 185.259,157.152 184.779 C 159.614 181.811,161.658 173.563,160.945 169.470 C 159.716 162.413,158.994 160.217,157.443 158.814 C 156.997 158.410,156.202 157.354,155.679 156.468 C 155.155 155.582,154.003 154.418,153.120 153.880 C 152.236 153.342,151.426 152.624,151.318 152.286 C 151.060 151.473,148.559 150.395,145.943 149.969 C 144.787 149.781,142.982 149.170,141.931 148.612 C 139.104 147.108,137.151 147.277,133.268 149.361 M145.892 152.149 C 146.574 152.559,147.974 153.407,149.004 154.032 C 152.040 155.876,156.232 160.955,156.232 162.790 C 156.232 163.057,156.717 164.296,157.311 165.544 C 158.892 168.865,158.897 174.641,157.321 177.821 C 156.732 179.009,155.932 180.818,155.542 181.841 C 152.916 188.737,141.121 194.493,135.775 191.488 C 134.936 191.017,134.245 190.442,134.241 190.212 C 134.230 189.684,131.624 187.837,130.324 187.438 C 129.784 187.272,128.787 186.675,128.107 186.110 C 127.428 185.545,126.170 184.603,125.313 184.015 C 124.264 183.297,123.675 182.556,123.514 181.752 C 123.383 181.095,122.846 179.632,122.322 178.502 C 121.797 177.372,120.976 175.564,120.496 174.485 C 120.017 173.405,119.435 172.401,119.202 172.253 C 118.903 172.063,118.911 171.720,119.228 171.076 C 119.474 170.576,119.792 169.725,119.933 169.185 C 120.075 168.646,120.514 167.498,120.909 166.634 C 121.305 165.770,121.903 164.446,122.239 163.690 C 123.546 160.749,126.458 157.809,129.481 156.379 C 130.640 155.831,132.320 154.721,133.213 153.913 C 136.365 151.062,136.401 151.049,140.726 151.234 C 143.664 151.360,144.964 151.590,145.892 152.149 " stroke="none" fill="#dedede" fill-rule="evenodd"></path><path id="path4" d="M74.583 87.165 C 70.988 87.671,70.173 87.965,67.508 89.719 C 63.805 92.156,61.160 95.660,59.820 99.904 C 58.653 103.602,58.658 296.532,59.825 299.902 C 61.968 306.086,67.946 311.304,75.172 313.296 C 78.605 314.243,337.624 314.088,341.195 313.137 C 348.375 311.225,353.616 307.197,356.638 301.268 L 358.587 297.445 358.587 200.244 C 358.587 96.236,358.654 100.263,356.892 98.927 C 356.745 98.816,356.271 98.025,355.839 97.171 C 355.407 96.317,354.606 95.169,354.060 94.620 C 351.898 92.448,349.255 90.285,348.766 90.285 C 348.482 90.285,348.191 90.145,348.119 89.973 C 347.886 89.418,345.169 87.929,344.389 87.929 C 343.972 87.929,343.410 87.709,343.140 87.439 C 342.579 86.878,78.537 86.609,74.583 87.165 M342.296 89.037 C 345.065 90.084,348.495 91.970,349.816 93.173 C 350.561 93.851,351.733 94.848,352.422 95.388 C 353.110 95.927,353.675 96.509,353.677 96.680 C 353.678 96.851,354.187 98.087,354.807 99.428 C 355.426 100.768,356.177 102.571,356.475 103.435 C 357.442 106.236,357.266 295.172,356.294 297.547 C 354.690 301.466,353.183 304.198,352.306 304.773 C 351.797 305.106,350.794 305.983,350.077 306.721 C 348.602 308.240,345.669 309.912,343.769 310.318 C 343.067 310.468,342.316 310.727,342.100 310.893 C 340.555 312.080,335.684 312.119,206.281 311.997 C 62.004 311.861,76.183 312.122,70.387 309.494 C 66.055 307.529,61.969 302.174,61.031 297.230 C 60.289 293.318,60.384 105.508,61.131 101.587 C 61.567 99.292,64.176 94.864,66.403 92.637 C 68.128 90.912,72.293 89.104,75.761 88.575 C 78.893 88.096,341.011 88.552,342.296 89.037 M78.742 101.597 C 76.517 102.409,74.891 104.149,74.145 106.514 C 73.304 109.182,73.149 269.623,73.980 277.723 C 74.313 280.962,74.590 285.643,74.597 288.126 C 74.615 294.983,76.247 296.882,82.703 297.561 C 87.071 298.021,195.509 298.033,200.589 297.575 C 204.617 297.211,206.121 296.620,208.423 294.497 C 209.188 293.791,210.211 293.110,210.697 292.982 L 211.580 292.751 211.583 279.545 C 211.588 262.318,211.507 262.897,214.352 259.803 C 215.712 258.325,216.721 256.838,216.857 256.112 C 217.023 255.227,217.430 254.745,218.356 254.338 C 219.079 254.020,219.909 253.213,220.281 252.469 C 220.640 251.749,221.523 250.866,222.243 250.506 C 222.963 250.147,223.800 249.323,224.104 248.675 C 224.407 248.027,224.814 247.436,225.008 247.360 C 225.759 247.066,227.282 245.116,227.282 244.447 C 227.282 244.061,228.121 242.890,229.146 241.847 C 231.230 239.726,231.992 238.817,231.992 238.451 C 231.992 238.315,233.246 236.993,234.778 235.515 C 238.082 232.326,239.447 230.563,239.461 229.463 C 239.467 228.913,239.954 228.433,240.988 227.957 C 241.924 227.526,242.686 226.822,242.976 226.121 C 243.236 225.495,244.138 224.526,244.982 223.968 C 245.826 223.409,246.516 222.795,246.516 222.603 C 246.516 222.410,247.124 221.526,247.866 220.637 C 248.609 219.748,249.340 218.631,249.492 218.154 C 249.932 216.768,251.212 215.189,254.456 212.032 C 256.307 210.231,257.758 208.431,258.178 207.416 C 258.636 206.308,259.274 205.557,260.082 205.171 C 260.750 204.852,261.567 204.035,261.897 203.354 C 262.227 202.673,263.096 201.816,263.829 201.450 C 264.561 201.084,265.412 200.257,265.719 199.612 C 266.025 198.966,266.689 198.114,267.193 197.717 C 267.697 197.320,268.484 196.126,268.941 195.063 C 269.399 194.000,270.001 193.131,270.280 193.131 C 270.559 193.131,271.334 192.441,272.001 191.599 C 273.114 190.194,273.418 190.045,275.665 189.801 C 277.013 189.655,278.789 189.363,279.612 189.152 C 281.178 188.751,286.711 189.681,287.169 190.422 C 287.289 190.616,287.730 190.775,288.149 190.775 C 288.568 190.775,288.912 190.996,288.913 191.266 C 288.914 191.536,289.204 192.287,289.558 192.934 C 289.911 193.582,290.617 194.907,291.127 195.878 C 291.636 196.850,292.210 197.910,292.401 198.234 C 292.593 198.557,293.427 200.280,294.255 202.061 C 295.084 203.842,295.884 205.299,296.034 205.299 C 296.184 205.299,296.423 205.831,296.566 206.482 C 296.818 207.625,298.897 209.617,299.841 209.617 C 300.090 209.617,300.294 209.982,300.294 210.427 C 300.294 212.084,301.593 215.341,302.633 216.290 C 303.246 216.850,304.177 218.536,304.801 220.216 C 305.403 221.835,306.297 223.602,306.787 224.141 C 307.278 224.681,307.958 225.741,308.297 226.497 C 308.637 227.252,309.080 228.135,309.282 228.459 C 309.485 228.783,309.935 229.666,310.282 230.422 C 310.630 231.178,311.068 232.061,311.254 232.385 C 311.441 232.709,311.799 233.415,312.049 233.955 C 312.873 235.731,314.048 238.066,314.419 238.665 C 314.620 238.989,315.211 240.137,315.733 241.217 C 316.255 242.296,317.326 243.886,318.112 244.750 C 318.899 245.613,319.719 246.938,319.935 247.694 C 320.405 249.341,320.995 250.153,322.179 250.784 C 322.685 251.054,323.063 251.625,323.064 252.124 C 323.066 252.602,323.331 253.499,323.653 254.117 C 323.976 254.736,324.239 255.480,324.239 255.772 C 324.239 256.064,324.746 256.883,325.364 257.592 C 325.983 258.301,326.624 259.323,326.790 259.863 C 326.955 260.402,327.400 261.286,327.779 261.825 C 328.158 262.365,328.749 263.425,329.093 264.181 C 329.438 264.936,329.885 265.819,330.087 266.143 C 330.289 266.467,330.739 267.350,331.087 268.106 C 331.435 268.862,331.873 269.745,332.061 270.069 C 332.250 270.393,333.078 272.071,333.903 273.798 C 334.728 275.525,335.585 277.167,335.808 277.448 C 336.957 278.896,337.800 279.489,338.357 279.240 C 338.689 279.091,339.578 278.895,340.334 278.803 C 343.937 278.364,343.907 279.170,343.780 187.046 L 343.670 107.360 342.758 105.594 C 341.690 103.525,340.039 102.602,336.068 101.854 C 331.232 100.944,81.215 100.693,78.742 101.597 M203.533 102.933 C 204.691 103.272,222.191 103.456,270.265 103.634 C 339.063 103.889,336.834 103.818,339.507 105.852 C 340.456 106.573,341.383 107.164,341.568 107.164 C 341.753 107.164,341.904 143.718,341.904 188.664 C 341.904 253.801,341.805 270.090,341.413 269.793 C 341.143 269.588,340.174 269.207,339.259 268.946 C 337.788 268.525,337.485 268.228,336.640 266.381 C 336.115 265.232,335.033 263.274,334.237 262.029 C 333.441 260.784,332.364 258.860,331.844 257.753 C 331.324 256.647,330.367 254.858,329.717 253.778 C 329.067 252.699,328.351 251.375,328.127 250.836 C 327.902 250.297,327.314 249.326,326.821 248.677 C 326.327 248.028,325.452 246.501,324.876 245.282 C 324.301 244.064,323.502 242.651,323.102 242.142 C 322.702 241.633,321.851 240.157,321.210 238.862 C 319.093 234.583,316.002 228.877,314.670 226.788 C 313.948 225.656,313.231 224.327,313.076 223.834 C 312.921 223.342,312.367 222.477,311.844 221.912 C 311.321 221.348,310.887 220.691,310.880 220.453 C 310.872 220.215,310.525 219.313,310.108 218.449 C 309.691 217.586,309.344 216.739,309.336 216.568 C 309.329 216.398,308.947 215.868,308.487 215.391 C 308.027 214.914,307.162 213.464,306.563 212.169 C 305.965 210.873,304.881 208.930,304.155 207.851 C 303.428 206.771,302.412 205.005,301.895 203.925 C 301.379 202.846,300.625 201.485,300.219 200.901 C 299.813 200.316,299.286 199.257,299.047 198.545 C 298.809 197.834,297.964 196.281,297.170 195.093 C 296.375 193.906,295.299 192.075,294.778 191.025 C 291.239 183.895,280.565 181.020,272.426 185.005 C 270.632 185.883,265.077 191.100,262.520 194.308 C 261.746 195.280,260.377 196.854,259.478 197.806 C 258.579 198.758,257.379 200.171,256.811 200.946 C 256.244 201.721,255.329 202.800,254.779 203.344 C 254.228 203.888,253.072 205.211,252.208 206.283 C 251.344 207.356,250.373 208.523,250.049 208.875 C 249.725 209.228,248.905 210.202,248.227 211.039 C 245.452 214.465,244.713 215.339,243.950 216.091 C 243.511 216.524,242.186 218.027,241.006 219.431 C 239.827 220.834,238.764 222.071,238.645 222.179 C 238.525 222.287,238.051 222.993,237.590 223.749 C 237.129 224.504,235.805 226.098,234.646 227.291 C 233.488 228.483,231.816 230.426,230.930 231.609 C 230.044 232.791,228.816 234.319,228.202 235.004 C 227.588 235.688,226.662 236.748,226.144 237.359 C 222.868 241.223,220.843 243.567,218.185 246.571 C 216.528 248.444,214.694 250.699,214.109 251.583 C 213.524 252.466,212.934 253.189,212.798 253.189 C 212.662 253.189,212.114 253.896,211.580 254.760 C 211.046 255.623,210.509 256.330,210.386 256.330 C 210.264 256.330,209.201 257.650,208.026 259.263 C 206.850 260.876,205.710 262.201,205.493 262.207 C 204.389 262.238,204.122 265.515,204.122 279.006 L 204.122 292.667 202.846 293.438 C 200.961 294.579,81.936 294.660,79.724 293.523 C 78.989 293.145,78.150 292.836,77.859 292.836 C 77.450 292.836,77.326 291.881,77.310 288.616 C 77.298 286.295,77.034 282.983,76.721 281.256 C 76.409 279.529,75.972 276.791,75.749 275.172 C 74.869 268.756,75.440 107.574,76.349 106.004 C 78.519 102.256,72.866 102.558,141.708 102.512 C 186.757 102.482,202.359 102.588,203.533 102.933 M136.703 154.897 L 135.427 157.079 135.427 171.993 C 135.427 183.386,135.543 187.028,135.918 187.423 C 136.187 187.708,136.728 188.383,137.119 188.924 C 139.251 191.874,146.536 189.889,151.388 185.037 C 156.309 180.116,158.593 168.668,155.308 165.383 C 155.168 165.244,155.052 164.850,155.050 164.508 C 155.020 159.616,146.400 152.707,140.334 152.712 L 137.978 152.714 136.703 154.897 M150.170 164.828 C 150.298 165.606,150.578 166.705,150.793 167.271 C 151.297 168.602,150.987 175.434,150.298 178.193 C 149.794 180.213,146.143 184.887,145.070 184.887 C 143.414 184.887,142.824 161.003,144.441 159.386 C 145.475 158.352,149.777 162.438,150.170 164.828 " stroke="none" fill="#d4d4d4" fill-rule="evenodd"></path></g></svg>