<svg xmlns="http://www.w3.org/2000/svg" width="100" height="56.274" viewBox="0 0 100 56.274">
  <g id="Group_9688" data-name="Group 9688" transform="translate(-377.4 -703)">
    <g id="Group_9443" data-name="Group 9443" transform="translate(-170 -76)">
      <rect id="Rectangle_2492" data-name="Rectangle 2492" width="100" height="56.274" rx="6" transform="translate(547.4 779)" fill="#030055"/>
      <g id="primary-negative" transform="translate(568.29 794.844)">
        <path id="Path_9007" data-name="Path 9007" d="M39.849,1.858H37.173V4.817H33.517V1.858H30.842V4.817H28.364V7.174h2.477V15.73h2.676V7.174h3.656V15.73h2.676V7.174h2.477V4.817H39.849ZM24.72,9.032H20.1a2.354,2.354,0,0,1,2.381-2.2,2.221,2.221,0,0,1,2.237,2.2Zm2.718,5.021L25.8,12.411a4.053,4.053,0,0,1-2.838,1.3,2.9,2.9,0,0,1-2.977-2.7h7.7c.343-3.915-2.1-6.458-5.237-6.458-3.217,0-5.316,2.64-5.316,5.755a5.5,5.5,0,0,0,5.719,5.676,6.093,6.093,0,0,0,4.594-1.93ZM46.187,15.73V.319H43.511V15.73ZM3.2,15.73V5.213H.517V15.724H3.2v.006Zm13.127,0V13.169H5.213v2.556H16.326Zm0-12.592V.577H5.418V3.133H16.326ZM0,1.858A1.858,1.858,0,1,0,1.858,0,1.871,1.871,0,0,0,0,1.858ZM55.441,9.032H50.823a2.354,2.354,0,0,1,2.381-2.2,2.225,2.225,0,0,1,2.237,2.2Zm2.718,5.021-1.642-1.642a4.053,4.053,0,0,1-2.838,1.3,2.9,2.9,0,0,1-2.977-2.7h7.7c.343-3.915-2.1-6.458-5.237-6.458-3.217,0-5.316,2.64-5.316,5.755a5.5,5.5,0,0,0,5.719,5.676,6.1,6.1,0,0,0,4.594-1.93Z" fill="#fff"/>
        <path id="Path_9008" data-name="Path 9008" d="M94.475,52.2,86.7,62.23h3.482L97.812,52.2Z" transform="translate(-81.487 -49.061)" fill="#b5a8e5"/>
        <g id="Group_9361" data-name="Group 9361" transform="translate(22.886 19.723)">
          <g id="Group_9360" data-name="Group 9360">
            <path id="Path_9009" data-name="Path 9009" d="M381.3,352.62l-.313.6H380.6L382,350.6h.343l.565,2.622h-.355l-.126-.6Zm.806-1.545-.643,1.239h.9Z" transform="translate(-380.6 -349.241)" fill="#fff"/>
            <g id="Group_9358" data-name="Group 9358" transform="translate(23.866 1.323)">
              <path id="Path_9010" data-name="Path 9010" d="M778.306,352.429a.658.658,0,0,0,.343-.078.518.518,0,0,0,.265-.451.323.323,0,0,0-.06-.2.591.591,0,0,0-.216-.156l-.331-.138a1.111,1.111,0,0,1-.4-.271.528.528,0,0,1-.126-.361.726.726,0,0,1,.12-.409.705.705,0,0,1,.331-.271,1.118,1.118,0,0,1,.487-.1,1.31,1.31,0,0,1,.4.06.879.879,0,0,1,.3.174l-.06.355a1.019,1.019,0,0,0-.68-.271.6.6,0,0,0-.385.12.362.362,0,0,0-.15.3.241.241,0,0,0,.072.174.976.976,0,0,0,.271.162l.325.144a1.018,1.018,0,0,1,.373.277.61.61,0,0,1,.108.361.964.964,0,0,1-.1.439.8.8,0,0,1-.331.331,1.2,1.2,0,0,1-.583.126,1.137,1.137,0,0,1-.77-.247l.06-.379a1.066,1.066,0,0,0,.746.3" transform="translate(-777.5 -350)" fill="#fff"/>
              <path id="Path_9011" data-name="Path 9011" d="M811.848,362.716a.764.764,0,0,1,.186.535,1.429,1.429,0,0,1-.012.18,1.074,1.074,0,0,1-.036.168h-1.431a.546.546,0,0,0,.15.439.606.606,0,0,0,.433.156,1.286,1.286,0,0,0,.349-.048,1.178,1.178,0,0,0,.307-.144l-.048.283a1.2,1.2,0,0,1-.691.2.875.875,0,0,1-.457-.114.761.761,0,0,1-.295-.307.989.989,0,0,1-.1-.445,1.238,1.238,0,0,1,.12-.505,1.117,1.117,0,0,1,.367-.439.994.994,0,0,1,.607-.174.731.731,0,0,1,.553.216m-1,.234a.786.786,0,0,0-.247.379h1.1c0-.018.006-.048.006-.084a.467.467,0,0,0-.114-.337.441.441,0,0,0-.325-.12.617.617,0,0,0-.421.162" transform="translate(-808.234 -361.748)" fill="#fff"/>
              <path id="Path_9012" data-name="Path 9012" d="M842.87,363.795a.5.5,0,0,0-.379.162.847.847,0,0,0-.2.469l-.15.938H841.8l.295-1.852h.325l-.048.313a.66.66,0,0,1,.547-.325,1.165,1.165,0,0,1,.15.012l-.048.295a.634.634,0,0,0-.15-.012" transform="translate(-837.933 -362.688)" fill="#fff"/>
              <path id="Path_9013" data-name="Path 9013" d="M865.958,365.458h-.313L865.2,363.6h.343l.313,1.449.77-1.449h.355Z" transform="translate(-859.926 -362.782)" fill="#fff"/>
              <path id="Path_9014" data-name="Path 9014" d="M893.337,354.086H893l.283-1.852h.343Zm.042-2.213a.177.177,0,0,1-.054-.132.213.213,0,0,1,.078-.168.241.241,0,0,1,.174-.072.185.185,0,0,1,.186.186.213.213,0,0,1-.078.168.241.241,0,0,1-.174.072.16.16,0,0,1-.132-.054" transform="translate(-886.055 -351.41)" fill="#fff"/>
              <path id="Path_9015" data-name="Path 9015" d="M905.1,364.564a.848.848,0,0,1-.295-.307.89.89,0,0,1-.108-.433,1.23,1.23,0,0,1,.132-.553,1.037,1.037,0,0,1,.391-.415,1.148,1.148,0,0,1,.6-.156.821.821,0,0,1,.541.168l-.054.343a.657.657,0,0,0-.505-.2.678.678,0,0,0-.391.114.809.809,0,0,0-.367.685.6.6,0,0,0,.144.415.5.5,0,0,0,.4.156.95.95,0,0,0,.313-.054.815.815,0,0,0,.277-.168l-.054.349a.931.931,0,0,1-.295.138,1.061,1.061,0,0,1-.313.042.833.833,0,0,1-.415-.12" transform="translate(-897.051 -361.936)" fill="#fff"/>
              <path id="Path_9016" data-name="Path 9016" d="M934.748,362.716a.764.764,0,0,1,.186.535,1.429,1.429,0,0,1-.012.18,1.073,1.073,0,0,1-.036.168h-1.431a.546.546,0,0,0,.15.439.606.606,0,0,0,.433.156,1.285,1.285,0,0,0,.349-.048,1.177,1.177,0,0,0,.307-.144l-.048.283a1.2,1.2,0,0,1-.691.2.875.875,0,0,1-.457-.114.76.76,0,0,1-.295-.307.989.989,0,0,1-.1-.445,1.238,1.238,0,0,1,.12-.505,1.116,1.116,0,0,1,.367-.439.994.994,0,0,1,.607-.174.713.713,0,0,1,.553.216m-1,.234a.787.787,0,0,0-.247.379h1.1c0-.018.006-.048.006-.084a.467.467,0,0,0-.114-.337.441.441,0,0,0-.325-.12.617.617,0,0,0-.421.162" transform="translate(-923.743 -361.748)" fill="#fff"/>
            </g>
            <g id="Group_9359" data-name="Group 9359" transform="translate(4.015)">
              <path id="Path_9017" data-name="Path 9017" d="M504.915,349.066h-.685a.122.122,0,0,0-.12.1l-.03.192-.048-.072a.979.979,0,0,0-.812-.289,1.588,1.588,0,0,0-1.539,1.383,1.3,1.3,0,0,0,.259,1.058,1.08,1.08,0,0,0,.866.349,1.324,1.324,0,0,0,.956-.4l-.03.192a.119.119,0,0,0,.12.138h.619a.205.205,0,0,0,.2-.168l.373-2.357A.132.132,0,0,0,504.915,349.066Zm-.962,1.341a.767.767,0,0,1-.776.655.534.534,0,0,1-.571-.667.767.767,0,0,1,.77-.661.575.575,0,0,1,.457.186A.592.592,0,0,1,503.953,350.407Z" transform="translate(-498.395 -347.737)" fill="#fff"/>
              <path id="Path_9018" data-name="Path 9018" d="M450.639,328.367a1.329,1.329,0,0,0-1.046-.367h-1.437a.205.205,0,0,0-.2.168l-.583,3.686a.119.119,0,0,0,.12.138h.685a.205.205,0,0,0,.2-.168l.156-.992a.2.2,0,0,1,.2-.168h.457a1.477,1.477,0,0,0,1.636-1.365A1.113,1.113,0,0,0,450.639,328.367Zm-.878.98c-.078.517-.475.517-.854.517h-.216l.15-.962a.122.122,0,0,1,.12-.1h.1c.259,0,.505,0,.631.15A.5.5,0,0,1,449.761,329.347Z" transform="translate(-447.372 -328)" fill="#fff"/>
              <path id="Path_9019" data-name="Path 9019" d="M731.345,328h-.661a.122.122,0,0,0-.12.1l-.589,3.752a.119.119,0,0,0,.12.138h.6a.205.205,0,0,0,.2-.168l.583-3.686A.13.13,0,0,0,731.345,328Z" transform="translate(-712.979 -328)" fill="#fff"/>
              <path id="Path_9020" data-name="Path 9020" d="M675.415,349.066h-.685a.122.122,0,0,0-.12.1l-.03.192-.048-.072a.98.98,0,0,0-.812-.289,1.588,1.588,0,0,0-1.539,1.383,1.3,1.3,0,0,0,.259,1.058,1.08,1.08,0,0,0,.866.349,1.324,1.324,0,0,0,.956-.4l-.03.192a.119.119,0,0,0,.12.138h.619a.205.205,0,0,0,.2-.168l.373-2.357A.128.128,0,0,0,675.415,349.066Zm-.956,1.341a.767.767,0,0,1-.776.655.534.534,0,0,1-.571-.667.767.767,0,0,1,.77-.661.575.575,0,0,1,.457.186A.591.591,0,0,1,674.459,350.407Z" transform="translate(-658.643 -347.737)" fill="#fff"/>
              <path id="Path_9021" data-name="Path 9021" d="M566.615,350.1h-.692a.184.184,0,0,0-.162.09L564.8,351.6l-.4-1.353a.2.2,0,0,0-.192-.144h-.68a.119.119,0,0,0-.114.156l.764,2.237-.716,1.01a.118.118,0,0,0,.1.186h.692a.192.192,0,0,0,.162-.084l2.3-3.319A.118.118,0,0,0,566.615,350.1Z" transform="translate(-556.427 -348.771)" fill="#fff"/>
              <path id="Path_9022" data-name="Path 9022" d="M621.239,328.367a1.329,1.329,0,0,0-1.046-.367h-1.437a.205.205,0,0,0-.2.168l-.583,3.686a.119.119,0,0,0,.12.138h.74a.141.141,0,0,0,.138-.12l.162-1.046a.2.2,0,0,1,.2-.168h.457a1.477,1.477,0,0,0,1.636-1.365A1.125,1.125,0,0,0,621.239,328.367Zm-.884.98c-.078.517-.475.517-.854.517h-.216l.15-.962a.122.122,0,0,1,.12-.1h.1c.259,0,.505,0,.631.15A.475.475,0,0,1,620.355,329.347Z" transform="translate(-607.714 -328)" fill="#fff"/>
            </g>
          </g>
        </g>
      </g>
    </g>
  </g>
</svg>
