<svg xmlns="http://www.w3.org/2000/svg" width="100" height="56.274" viewBox="0 0 100 56.274">
  <g id="Group_9686" data-name="Group 9686" transform="translate(-108.4 -702.731)">
    <g id="Group_9445" data-name="Group 9445" transform="translate(-19 -71.269)">
      <rect id="Rectangle_2492" data-name="Rectangle 2492" width="100" height="56.274" rx="6" transform="translate(127.4 774)" fill="#41af4b"/>
      <g id="vend-tag-logo" transform="translate(143.423 787.049)">
        <path id="Path_9027" data-name="Path 9027" d="M58.293,0H2.927A2.923,2.923,0,0,0,0,2.927v24.39a2.923,2.923,0,0,0,2.927,2.927H58.293a2.925,2.925,0,0,0,2.6-1.58l7.268-12.2a2.9,2.9,0,0,0,0-2.683L60.888,1.59A2.916,2.916,0,0,0,58.293,0" transform="translate(0 0)" fill="#fff"/>
        <path id="Path_9028" data-name="Path 9028" d="M108.707,69a1.463,1.463,0,1,1-1.463-1.463A1.461,1.461,0,0,1,108.707,69M59.428,65.9h2.156a.2.2,0,0,1,.176.283L56.16,77.7a.293.293,0,0,1-.527,0L49.994,66.178a.2.2,0,0,1,.176-.283h2.166a.193.193,0,0,1,.176.117L55.9,73.349l3.356-7.337a.193.193,0,0,1,.176-.117m11.883,4.634a3.633,3.633,0,0,0-1-2.127,2.956,2.956,0,0,0-2.176-.859,3.429,3.429,0,0,0-2.322.8,3.54,3.54,0,0,0-1.171,2.176h6.673Zm.654,3.522,1.454.849a.2.2,0,0,1,.068.273,6.182,6.182,0,0,1-5.522,3.063,5.268,5.268,0,0,1-4.215-1.883,7.349,7.349,0,0,1-1.561-4.927,6.291,6.291,0,0,1,.468-2.293,5.281,5.281,0,0,1,2.917-3.093,6.1,6.1,0,0,1,2.39-.459,4.946,4.946,0,0,1,5.044,3.151,6.57,6.57,0,0,1,.556,2.82l-.02.517a.188.188,0,0,1-.2.185h-8.82a4.131,4.131,0,0,0,.985,2.81,3.459,3.459,0,0,0,2.712,1.171,4.237,4.237,0,0,0,3.463-2.107.19.19,0,0,1,.273-.078m3.9-8.156H77.75a.2.2,0,0,1,.2.2v1.5a4.166,4.166,0,0,1,3.688-2.02c2.771,0,4.166,1.7,4.166,5.1v6.956a.2.2,0,0,1-.2.2H83.711a.2.2,0,0,1-.2-.2v-7A3.659,3.659,0,0,0,82.98,68.4a2.465,2.465,0,0,0-2.088-.81q-2.941,0-2.946,3.717v6.322a.2.2,0,0,1-.2.2H75.868a.2.2,0,0,1-.2-.2V66.09a.2.2,0,0,1,.2-.2m21.5,6.029a3.925,3.925,0,0,0-1.785-3.659,3.793,3.793,0,0,0-1.99-.527,3.27,3.27,0,0,0-3.22,2.244,5.215,5.215,0,0,0-.4,1.99,4.219,4.219,0,0,0,1.473,3.385,3.083,3.083,0,0,0,2.088.693A3.432,3.432,0,0,0,96.96,73.9a4.8,4.8,0,0,0,.41-1.98M97.838,59.7h1.893a.2.2,0,0,1,.2.2V77.632a.2.2,0,0,1-.2.2H97.838a.2.2,0,0,1-.2-.2V75.885a4.71,4.71,0,0,1-4.078,2.351,5.2,5.2,0,0,1-4.39-2.1,6.754,6.754,0,0,1-1.4-4.156,7.483,7.483,0,0,1,.693-3.249A5.393,5.393,0,0,1,90.7,66.3a5.555,5.555,0,0,1,2.761-.722,4.855,4.855,0,0,1,2.42.673,4.3,4.3,0,0,1,1.756,1.737V59.9a.211.211,0,0,1,.2-.2" transform="translate(-45.097 -53.876)" fill="#41af4b"/>
      </g>
    </g>
  </g>
</svg>
