<svg xmlns="http://www.w3.org/2000/svg" width="100" height="56.274" viewBox="0 0 100 56.274">
  <g id="Group_9689" data-name="Group 9689" transform="translate(-516.4 -702)">
    <g id="Group_9444" data-name="Group 9444" transform="translate(-196 -77)">
      <rect id="Rectangle_2492" data-name="Rectangle 2492" width="100" height="56.274" rx="6" transform="translate(712.4 779)" fill="#f4f6f8"/>
      <g id="shopify_logo_whitebg" transform="translate(723.613 795.638)">
        <g id="Group_9377" data-name="Group 9377">
          <path id="Path_9024" data-name="Path 9024" d="M16.771,4.564a.2.2,0,0,0-.187-.172c-.078,0-1.624-.031-1.624-.031s-1.3-1.249-1.421-1.39a.519.519,0,0,0-.468-.062l-.656.2a4.656,4.656,0,0,0-.312-.765A2.192,2.192,0,0,0,10.15,1h0a.641.641,0,0,0-.172.016C9.947.989,9.932.957,9.9.942A1.735,1.735,0,0,0,8.542.4,3.944,3.944,0,0,0,5.59,2.534,8.8,8.8,0,0,0,4.4,5.6c-1.2.375-2.046.64-2.077.64-.609.187-.625.2-.7.781C1.593,7.453,0,19.774,0,19.774l13.367,2.311,5.793-1.437C19.145,20.649,16.787,4.674,16.771,4.564ZM11.743,3.331q-.468.141-1.031.328A5.778,5.778,0,0,0,10.4,1.754C11.2,1.879,11.587,2.784,11.743,3.331Zm-1.733.531c-.7.219-1.468.453-2.233.687A5.386,5.386,0,0,1,8.9,2.363a2.271,2.271,0,0,1,.75-.547A4.583,4.583,0,0,1,10.01,3.862ZM8.573,1.1A1.015,1.015,0,0,1,9.2,1.27a2.767,2.767,0,0,0-.812.64A6.087,6.087,0,0,0,7,4.814c-.64.2-1.265.39-1.827.562C5.544,3.674,6.965,1.145,8.573,1.1Z" transform="translate(0 -0.394)" fill="#95bf47"/>
          <g id="Group_9376" data-name="Group 9376" transform="translate(3.56 2.499)">
            <path id="Path_9025" data-name="Path 9025" d="M88.817,17.9c-.078,0-1.624-.031-1.624-.031s-1.3-1.249-1.421-1.39A.251.251,0,0,0,85.6,16.4V35.592l5.793-1.437S89.035,18.18,89.02,18.071A.227.227,0,0,0,88.817,17.9Z" transform="translate(-75.793 -16.4)" fill="#5e8e3e"/>
            <path id="Path_9026" data-name="Path 9026" d="M29.39,43.848l-.671,2.514a3.741,3.741,0,0,0-1.64-.281c-1.312.078-1.312.906-1.312,1.109.078,1.124,3.029,1.374,3.2,4.013a3.114,3.114,0,0,1-2.873,3.607A4.379,4.379,0,0,1,22.8,53.67l.453-1.921a4.093,4.093,0,0,0,2.124.828.828.828,0,0,0,.812-.89c-.094-1.468-2.5-1.374-2.655-3.795-.125-2.03,1.2-4.076,4.138-4.263A3.517,3.517,0,0,1,29.39,43.848Z" transform="translate(-22.8 -39.366)" fill="#fff"/>
          </g>
        </g>
        <g id="Group_9378" data-name="Group 9378" transform="translate(22.205 4.28)">
          <path id="s_4_" d="M146.994,58.22c-.671-.359-1.015-.671-1.015-1.093,0-.531.484-.874,1.234-.874a4.465,4.465,0,0,1,1.655.359l.609-1.874a3.881,3.881,0,0,0-2.217-.437c-2.311,0-3.92,1.327-3.92,3.186a2.94,2.94,0,0,0,1.749,2.436c.812.453,1.093.781,1.093,1.265,0,.5-.406.906-1.156.906a5.211,5.211,0,0,1-2.171-.578l-.656,1.874a4.953,4.953,0,0,0,2.608.656c2.374,0,4.091-1.171,4.091-3.279A3.165,3.165,0,0,0,146.994,58.22Z" transform="translate(-142.2 -50.162)"/>
          <path id="h_4_" d="M195.527,32.92a3.566,3.566,0,0,0-2.8,1.405l-.031-.016L193.716,29h-2.639L188.5,42.523h2.639l.874-4.622c.344-1.749,1.249-2.826,2.092-2.826.593,0,.828.406.828.984a5.947,5.947,0,0,1-.109,1.171l-1,5.294h2.639l1.031-5.465a10.441,10.441,0,0,0,.187-1.733C197.7,33.825,196.917,32.92,195.527,32.92Z" transform="translate(-181.27 -28.813)"/>
          <path id="o_4_" d="M257.094,54.1c-3.186,0-5.294,2.873-5.294,6.074a3.456,3.456,0,0,0,3.638,3.7c3.123,0,5.231-2.8,5.231-6.074A3.416,3.416,0,0,0,257.094,54.1Zm-1.3,7.761c-.906,0-1.28-.765-1.28-1.733,0-1.515.781-3.982,2.217-3.982.937,0,1.249.812,1.249,1.593C257.984,59.362,257.187,61.861,255.8,61.861Z" transform="translate(-234.685 -49.993)"/>
          <path id="p_4_" d="M312.086,54.1a3.621,3.621,0,0,0-2.8,1.577h-.031l.156-1.421h-2.342c-.109.953-.328,2.42-.531,3.514L304.7,67.451h2.639l.734-3.92h.062a3.1,3.1,0,0,0,1.546.344c3.108,0,5.138-3.186,5.138-6.4C314.819,55.693,314.023,54.1,312.086,54.1Zm-2.53,7.792a1.665,1.665,0,0,1-1.093-.39l.437-2.467c.312-1.655,1.171-2.748,2.092-2.748.812,0,1.062.75,1.062,1.452C312.055,59.456,311.04,61.892,309.556,61.892Z" transform="translate(-279.325 -49.993)"/>
          <path id="dot_4_" d="M385.515,29.8A1.51,1.51,0,0,0,384,31.33a1.227,1.227,0,0,0,1.249,1.327h.031a1.487,1.487,0,0,0,1.546-1.53A1.258,1.258,0,0,0,385.515,29.8Z" transform="translate(-346.242 -29.488)"/>
          <path id="i_4_" d="M370,64.869h2.639l1.8-9.369H371.78Z" transform="translate(-334.428 -51.174)"/>
          <path id="f_4_" d="M407.746,32.11H405.9l.094-.437c.156-.906.687-1.7,1.577-1.7a2.663,2.663,0,0,1,.843.141l.515-2.077A3.394,3.394,0,0,0,407.5,27.8a3.977,3.977,0,0,0-2.592.874,4.934,4.934,0,0,0-1.53,3l-.078.437h-1.234l-.39,2h1.234l-1.405,7.4h2.639l1.405-7.4h1.827Z" transform="translate(-361.009 -27.8)"/>
          <path id="y_4_" d="M443.061,55.5s-1.655,4.169-2.389,6.449h-.031c-.047-.734-.656-6.449-.656-6.449h-2.78l1.593,8.6a.574.574,0,0,1-.062.437,4.633,4.633,0,0,1-1.437,1.593,6.1,6.1,0,0,1-1.5.75l.734,2.249a6.082,6.082,0,0,0,2.592-1.437,17.682,17.682,0,0,0,3.467-5.247l3.232-6.949Z" transform="translate(-389.953 -51.174)"/>
        </g>
      </g>
    </g>
  </g>
</svg>
