<svg xmlns="http://www.w3.org/2000/svg" width="20px" height="20px" viewBox="0 0 45.001 28.388">
  <g id="scooter" transform="translate(0 -8.306)">
    <g id="Group_6" data-name="Group 6">
      <g id="Group_5" data-name="Group 5">
        <path id="Path_7" data-name="Path 7" d="M22.039,18.379H38.311a.492.492,0,0,0,.443-.282c.493-1.042.936-2.119.462-2.819-.454-.677-1.562-.954-3.829-.954-1.442,0-3.265.115-5.191.237-2.394.151-5.1.323-7.772.323a.49.49,0,0,0-.427.247,5.539,5.539,0,0,0-.461,2.436,2.569,2.569,0,0,0,.014.375A.492.492,0,0,0,22.039,18.379Z" fill="#eb4b1f"/>
        <path id="Path_8" data-name="Path 8" d="M43.447,25.307l.294-.1a.5.5,0,0,0,.319-.367l.309-1.5a.49.49,0,0,0-.154-.466l-1.633-1.457a.493.493,0,0,0-.317-.125l-1.986-.04c-.4-.339-1.556-1.335-2.079-1.772a.49.49,0,0,0-.315-.114H22.852a.492.492,0,0,0-.463.656,3.7,3.7,0,0,0,.732,1.069A16.033,16.033,0,0,1,24.614,23.1a2.259,2.259,0,0,1,.238,2.1,4.056,4.056,0,0,1-2.3,2.16,10.306,10.306,0,0,1-2.52.251,17.643,17.643,0,0,1-4.76-.646c-2.678-.775-3.188-6.793-2.9-7.834.158-.581.862-2.509,1.543-4.373.192-.527.358-.98.5-1.382.12.084.207.141.213.145a.492.492,0,0,0,.527-.83s-.179-.115-.392-.279c.1-.289.19-.534.262-.74l.026.005A.484.484,0,0,0,15.4,12c.712.174,1.377.413,1.384.416a.487.487,0,0,0,.167.03.492.492,0,0,0,.168-.954c-.029-.01-.719-.259-1.485-.446a.478.478,0,0,0-.428.108,2.491,2.491,0,0,0,.161-.634c0-.917-3.423-2.179-4.489-2.216a1.013,1.013,0,0,0-.8.378c-.767.915-.357,3.492-.267,4a.49.49,0,0,0,.424.4l1.289.159A56.726,56.726,0,0,1,8.76,19.532a2.825,2.825,0,0,1-1.055.31c-.665.118-1.294.229-1.533.707a3.968,3.968,0,0,0-.192,1.778c-.074,0-.146-.015-.22-.015A6.414,6.414,0,0,0,.225,25.506,1.342,1.342,0,0,0,.1,26.748a2.521,2.521,0,0,0,1.154,1.069,5.467,5.467,0,1,0,9.741,3.406c0-.146-.011-.292-.022-.438.49.18,1.128.479,1.307.573a.233.233,0,0,0,.358-.157,6.7,6.7,0,0,0,.108-.83c1.453,1.181,3.012,1.265,5.307,1.265H30.733a6,6,0,0,0,11.917-.944c0-.177-.012-.351-.026-.522,1.742-.246,2.026-.535,2.162-.676A.7.7,0,0,0,45,28.965,9.678,9.678,0,0,0,43.447,25.307ZM8.535,31.222a3.01,3.01,0,1,1-4.773-2.429c.9.269,1.9.519,2.915.771.525.13,1.055.264,1.574.4A3.005,3.005,0,0,1,8.535,31.222Zm31.654-.532a3.541,3.541,0,1,1-7.081,0c2.591-.019,5.394-.179,7.052-.286C40.168,30.5,40.189,30.594,40.189,30.69Z" fill="#eb4b1f"/>
      </g>
    </g>
  </g>
</svg>
